Hanif_Deep_5_0_grf.mot
version=1
nRows=21
nColumns=19
inDegrees=yes
endheader
time	right_ground_force_vx	right_ground_force_vy	right_ground_force_vz	right_ground_force_px	right_ground_force_py	right_ground_force_pz	right_ground_torque_x	right_ground_torque_y	right_ground_torque_z	left_ground_force_vx	left_ground_force_vy	left_ground_force_vz	left_ground_force_px	left_ground_force_py	left_ground_force_pz	left_ground_torque_x	left_ground_torque_y	left_ground_torque_z
1.450000	-11.033200	316.610000	-28.965100	0.211009	0.000000	-1.427480	-25.016900	3.960370	3.073090	0.633031	310.661000	32.009800	0.241698	0.000000	-0.991310	27.417600	-9.652490	12.102700
1.455000	-11.242500	312.379000	-28.500900	0.210748	0.000000	-1.428560	-24.354600	4.009390	2.940250	0.565799	308.098000	31.717800	0.241505	0.000000	-0.991540	27.263700	-9.691350	11.930700
1.460000	-11.479400	312.557000	-27.956900	0.211400	0.000000	-1.428050	-24.527900	3.904910	3.162300	0.571285	306.870000	32.221200	0.241106	0.000000	-0.991654	27.190000	-9.616880	11.748700
1.465000	-11.602900	309.071000	-28.004400	0.210654	0.000000	-1.427000	-24.585800	3.867810	2.886500	0.933230	305.726000	33.005000	0.241408	0.000000	-0.991412	27.005300	-9.503180	11.790100
1.470000	-12.446600	309.267000	-27.637300	0.211399	0.000000	-1.427450	-24.480600	3.965250	3.111860	0.381610	303.998000	32.805800	0.241087	0.000000	-0.990928	26.719900	-9.512740	11.613000
1.475000	-12.363000	307.807000	-27.195500	0.211423	0.000000	-1.427830	-24.249600	4.015150	3.103310	0.550488	303.146000	33.466000	0.240349	0.000000	-0.991606	26.846100	-9.469330	11.340800
1.480000	-12.952400	306.023000	-26.541800	0.211246	0.000000	-1.428400	-23.944300	3.977660	3.035280	0.842786	299.292000	33.827000	0.240808	0.000000	-0.991749	26.539600	-9.362360	11.320000
1.485000	-13.014700	302.765000	-27.060900	0.211381	0.000000	-1.428300	-23.727300	4.014060	3.024210	1.270720	298.514000	33.945800	0.240728	0.000000	-0.991774	26.466400	-9.474360	11.250600
1.490000	-12.114500	301.633000	-25.859600	0.212249	0.000000	-1.428750	-23.489100	4.054750	3.293990	1.190370	298.387000	33.812800	0.239446	0.000000	-0.991478	26.368700	-9.474500	10.859700
1.495000	-12.461800	299.775000	-26.445300	0.211319	0.000000	-1.428310	-23.488800	4.111970	2.971310	1.121730	296.489000	34.011800	0.240201	0.000000	-0.990375	25.875400	-9.502470	10.997100
1.500000	-11.911800	298.953000	-26.471900	0.211160	0.000000	-1.429220	-23.143100	4.136140	2.915380	1.375730	294.466000	33.962400	0.239280	0.000000	-0.990487	25.725200	-9.320430	10.659300
1.505000	-12.261300	298.633000	-26.148200	0.211475	0.000000	-1.429280	-23.108100	4.165050	3.006050	1.635470	292.947000	33.646300	0.239211	0.000000	-0.990795	25.675100	-9.377420	10.577800
1.510000	-11.795700	294.706000	-26.448000	0.211775	0.000000	-1.428360	-23.078200	4.347840	3.025780	1.743020	293.647000	33.758300	0.238898	0.000000	-0.990087	25.525800	-9.361390	10.514500
1.515000	-12.121400	294.864000	-26.132300	0.212169	0.000000	-1.429030	-22.895700	4.268700	3.155380	2.431250	293.561000	33.404800	0.238580	0.000000	-0.988879	25.145100	-9.395460	10.426800
1.520000	-11.778500	293.703000	-26.197800	0.211381	0.000000	-1.429120	-22.775000	4.234540	2.910790	1.928320	291.088000	33.083000	0.238592	0.000000	-0.989609	25.158100	-9.409350	10.328400
1.525000	-11.077300	291.603000	-25.968800	0.211432	0.000000	-1.429000	-22.639200	4.351090	2.896740	3.041370	292.031000	32.244400	0.237524	0.000000	-0.989059	25.049500	-9.386570	10.084100
1.530000	-11.522900	291.166000	-26.644100	0.212347	0.000000	-1.428730	-22.691500	4.348370	3.145880	3.332940	290.551000	32.299000	0.237152	0.000000	-0.990273	25.266200	-9.438630	9.911040
1.535000	-12.469200	291.445000	-26.633000	0.212151	0.000000	-1.428760	-22.723700	4.335680	3.086600	4.012010	289.563000	32.172800	0.237184	0.000000	-0.990194	25.138600	-9.454210	9.888430
1.540000	-12.614300	290.428000	-26.416900	0.212940	0.000000	-1.430290	-22.204600	4.334860	3.308050	4.595860	290.515000	31.560800	0.237041	0.000000	-0.989010	24.863700	-9.374670	9.912450
1.545000	-12.585400	289.198000	-27.034600	0.212800	0.000000	-1.428390	-22.659200	4.301390	3.240570	4.823120	289.030000	30.957000	0.235900	0.000000	-0.990036	25.024300	-9.422030	9.530990
1.550000	-12.661200	287.895000	-26.731900	0.212956	0.000000	-1.429140	-22.350300	4.432860	3.260090	5.679990	286.329000	30.819400	0.236095	0.000000	-0.989660	24.657100	-9.473340	9.488000
